<svg height="512pt" viewBox="-13 0 512 512" width="512pt" xmlns="http://www.w3.org/2000/svg"><path d="m366.59375 188.332031c-36.207031 0-65.664062-29.457031-65.664062-65.667969v-37.84375c0-30.226562-24.59375-54.820312-54.824219-54.820312-30.226563 0-54.824219 24.59375-54.824219 54.820312v38.179688h-30v-38.179688c0-46.769531 38.054688-84.820312 84.824219-84.820312 46.773437 0 84.824219 38.050781 84.824219 84.820312v37.84375c0 19.667969 16 35.667969 35.664062 35.667969 19.667969 0 35.667969-16 35.667969-35.667969v-56h30v56c0 36.210938-29.457031 65.667969-65.667969 65.667969zm0 0" fill="#f4d34e"/><path d="m349 46.414062 21.214844-21.214843 21.210937 21.214843-21.210937 21.214844zm0 0" fill="#ffa001"/><path d="m442.976562 46.410156 21.214844-21.210937 21.210938 21.210937-21.210938 21.214844zm0 0" fill="#ffa001"/><path d="m352.519531 335.738281c0 97.183594-79.058593 176.25-176.238281 176.261719-.011719 0-.011719 0-.019531 0-97.191407 0-176.261719-79.070312-176.261719-176.261719 0-64.957031 35.570312-124.457031 92.820312-155.277343l3.328126-1.789063h160.222656l3.328125 1.789063c57.261719 30.820312 92.820312 90.320312 92.820312 155.277343zm0 0" fill="#39689e"/><path d="m402.261719 0h30v42.5h-30zm0 0" fill="#ffa001"/><path d="m352.519531 335.738281c0 97.183594-79.058593 176.25-176.238281 176.261719v-333.328125h80.089844l3.328125 1.789063c57.261719 30.820312 92.820312 90.320312 92.820312 155.277343zm0 0" fill="#224370"/><path d="m84.929688 108.140625h182.710937v76.828125h-182.710937zm0 0" fill="#518bb9"/><path d="m176.28125 108.140625h91.359375v76.828125h-91.359375zm0 0" fill="#39689e"/></svg>